<svg xmlns="http://www.w3.org/2000/svg" viewBox="0 0 1200 700" role="img" aria-labelledby="t"><title id="t">Webdev brand website</title><defs><linearGradient id="g" x1="0" y1="0" x2="1" y2="1"><stop offset="0" stop-color="#2f7cf6"/><stop offset="1" stop-color="#7b5cff"/></linearGradient></defs><rect width="1200" height="700" fill="#0b0f14"/><rect width="1200" height="62" fill="#101720"/><rect x="60" y="24" width="34" height="18" rx="4" fill="none" stroke="#596168" stroke-width="4"/><rect x="1080" y="22" width="34" height="4" rx="2" fill="#596168"/><rect x="1080" y="32" width="34" height="4" rx="2" fill="#596168"/><rect x="1080" y="42" width="34" height="4" rx="2" fill="#596168"/><rect x="80" y="150" width="120" height="28" rx="14" fill="#1a2330"/><circle cx="160" cy="164" r="26" fill="url(#g)" opacity="0.5"/><rect x="80" y="230" width="620" height="42" rx="10" fill="#1c2836"/><rect x="80" y="292" width="470" height="42" rx="10" fill="#1c2836"/><rect x="80" y="354" width="540" height="18" rx="9" fill="#26333f"/><rect x="80" y="386" width="420" height="18" rx="9" fill="#26333f"/><rect x="80" y="450" width="210" height="56" rx="28" fill="url(#g)"/><rect x="310" y="450" width="190" height="56" rx="28" fill="none" stroke="#39434e" stroke-width="4"/><circle cx="900" cy="330" r="190" fill="url(#g)" opacity="0.16"/><circle cx="900" cy="330" r="150" fill="#141d29"/><circle cx="900" cy="330" r="120" fill="url(#g)" opacity="0.22"/><path d="M860 270h80v70h-80z" fill="#223143"/><rect x="872" y="282" width="56" height="30" rx="4" fill="#3d5a80"/><path d="M878 362c12-30 52-30 62 0" fill="#4d6c95"/><rect x="770" y="470" width="260" height="12" rx="6" fill="#223143"/><rect x="770" y="498" width="200" height="12" rx="6" fill="#1a2430"/><rect x="0" y="620" width="1200" height="80" fill="#0e141b"/><rect x="80" y="650" width="240" height="14" rx="7" fill="#26333f"/><rect x="360" y="650" width="180" height="14" rx="7" fill="#1c2836"/><rect x="580" y="650" width="180" height="14" rx="7" fill="#1c2836"/><rect x="960" y="644" width="160" height="26" rx="13" fill="url(#g)" opacity="0.7"/></svg>
